<svg width="512" height="512" viewBox="0 0 512 512" fill="none" xmlns="http://www.w3.org/2000/svg" role="img" aria-labelledby="title desc">
  <title id="title">X-Ops Alliance mark</title>
  <desc id="desc">Connected X-shaped alliance mark.</desc>
  <defs>
    <linearGradient id="g" x1="72" y1="70" x2="444" y2="442" gradientUnits="userSpaceOnUse">
      <stop stop-color="#22D3EE"/>
      <stop offset="0.48" stop-color="#2563EB"/>
      <stop offset="1" stop-color="#F97316"/>
    </linearGradient>
    <filter id="shadow" x="-20%" y="-20%" width="140%" height="140%">
      <feDropShadow dx="0" dy="18" stdDeviation="18" flood-color="#000000" flood-opacity="0.45"/>
    </filter>
  </defs>
  <rect width="512" height="512" rx="112" fill="#071014"/>
  <g filter="url(#shadow)">
    <path d="M108 94C168 94 206 148 256 196C306 148 344 94 404 94C438 94 464 120 464 154C464 214 410 252 362 302C410 352 464 390 464 450C464 484 438 510 404 510C344 510 306 456 256 408C206 456 168 510 108 510C74 510 48 484 48 450C48 390 102 352 150 302C102 252 48 214 48 154C48 120 74 94 108 94Z" transform="translate(0 -46)" stroke="url(#g)" stroke-width="42" stroke-linecap="round" stroke-linejoin="round"/>
    <circle cx="256" cy="256" r="31" fill="#071014" stroke="#FACC15" stroke-width="16"/>
    <circle cx="108" cy="108" r="18" fill="#22D3EE"/>
    <circle cx="404" cy="108" r="18" fill="#F97316"/>
    <circle cx="108" cy="404" r="18" fill="#2563EB"/>
    <circle cx="404" cy="404" r="18" fill="#FACC15"/>
  </g>
</svg>
